<?xml version="1.0" encoding="UTF-8" standalone="no"?>
<svg
   xmlns:dc="http://purl.org/dc/elements/1.1/"
   xmlns:cc="http://creativecommons.org/ns#"
   xmlns:rdf="http://www.w3.org/1999/02/22-rdf-syntax-ns#"
   xmlns:svg="http://www.w3.org/2000/svg"
   xmlns="http://www.w3.org/2000/svg"
   viewBox="0 0 279.75262 75.45415"
   height="75.454147"
   width="279.75262"
   xml:space="preserve"
   version="1.1"
   id="svg4451"><metadata
     id="metadata4457"><rdf:RDF><cc:Work
         rdf:about=""><dc:format>image/svg+xml</dc:format><dc:type
           rdf:resource="http://purl.org/dc/dcmitype/StillImage" /><dc:title></dc:title></cc:Work></rdf:RDF></metadata><defs
     id="defs4455"><clipPath
       id="clipPath4467"
       clipPathUnits="userSpaceOnUse"><path
         id="path4469"
         d="M 0,837 0,5 595,5 595,837 0,837 Z" /></clipPath><clipPath
       id="clipPath4473"
       clipPathUnits="userSpaceOnUse"><path
         id="path4475"
         d="m 0,0 595.2756,0 0,841.8614 L 0,841.8614 0,0 Z" /></clipPath><clipPath
       id="clipPath4479"
       clipPathUnits="userSpaceOnUse"><path
         id="path4481"
         d="m 32,68 489,0 0,688 -489,0 0,-688 z" /></clipPath><clipPath
       id="clipPath4483"
       clipPathUnits="userSpaceOnUse"><path
         id="path4485"
         d="M 0,4 596,4 596,837 0,837 0,4 Z" /></clipPath><clipPath
       id="clipPath4487"
       clipPathUnits="userSpaceOnUse"><path
         id="path4489"
         d="M 0,838 0,4.613693 l 595.2756,0 L 595.2756,838 0,838 Z" /></clipPath><clipPath
       id="clipPath4491"
       clipPathUnits="userSpaceOnUse"><path
         id="path4493"
         d="M 0,4 596,4 596,837 0,837 0,4 Z" /></clipPath><clipPath
       id="clipPath4495"
       clipPathUnits="userSpaceOnUse"><path
         id="path4497"
         d="m 344.4607,753.9806 -0.8661,0.9434 -309.9551,0.42 0,-672.00042 375.7549,0 c 12.0254,83.55902 16.8605,160.06372 16.8596,229.11772 l 0,0 c -0.005,283.9529 -81.7933,441.5193 -81.7933,441.5193" /></clipPath><clipPath
       id="clipPath4499"
       clipPathUnits="userSpaceOnUse"><path
         id="path4501"
         d="M 0,4 596,4 596,837 0,837 0,4 Z" /></clipPath><linearGradient
       id="linearGradient4503"
       spreadMethod="pad"
       gradientTransform="matrix(0,-672.0004,-672.0004,0,33.63968,755.344)"
       gradientUnits="userSpaceOnUse"
       y2="0"
       x2="1"
       y1="0"
       x1="0"><stop
         id="stop4505"
         offset="0"
         style="stop-opacity:1;stop-color:#ffffff" /><stop
         id="stop4507"
         offset="1"
         style="stop-opacity:1;stop-color:#e95c1c" /></linearGradient><clipPath
       id="clipPath4509"
       clipPathUnits="userSpaceOnUse"><path
         id="path4511"
         d="m 433.4688,713.8647 0,-223.8021 61.3914,0 0,223.8021 -61.3914,0 z" /></clipPath><clipPath
       id="clipPath4513"
       clipPathUnits="userSpaceOnUse"><path
         id="path4515"
         d="M 0,4 596,4 596,837 0,837 0,4 Z" /></clipPath><clipPath
       id="clipPath4517"
       clipPathUnits="userSpaceOnUse"><path
         id="path4519"
         d="M 0,4 596,4 596,837 0,837 0,4 Z" /></clipPath><clipPath
       id="clipPath4521"
       clipPathUnits="userSpaceOnUse"><path
         id="path4523"
         d="M 0,838 0,4.613693 l 595.2756,0 L 595.2756,838 0,838 Z" /></clipPath><clipPath
       id="clipPath4525"
       clipPathUnits="userSpaceOnUse"><path
         id="path4527"
         d="M 0,4 596,4 596,837 0,837 0,4 Z" /></clipPath><clipPath
       id="clipPath4529"
       clipPathUnits="userSpaceOnUse"><path
         id="path4531"
         d="M 0,4 596,4 596,837 0,837 0,4 Z" /></clipPath><clipPath
       id="clipPath4533"
       clipPathUnits="userSpaceOnUse"><path
         id="path4535"
         d="m 264.4834,271.313 0,-141.3586 78.908,0 0,141.3586 -78.908,0 z" /></clipPath><clipPath
       id="clipPath4537"
       clipPathUnits="userSpaceOnUse"><path
         id="path4539"
         d="M 0,4 596,4 596,837 0,837 0,4 Z" /></clipPath><clipPath
       id="clipPath4541"
       clipPathUnits="userSpaceOnUse"><path
         id="path4543"
         d="M 0,838 0,4.613693 l 595.2756,0 L 595.2756,838 0,838 Z" /></clipPath><clipPath
       id="clipPath4545"
       clipPathUnits="userSpaceOnUse"><path
         id="path4547"
         d="M 0,4 596,4 596,837 0,837 0,4 Z" /></clipPath><clipPath
       id="clipPath4549"
       clipPathUnits="userSpaceOnUse"><path
         id="path4551"
         d="m 262,218 18,0 0,54 -18,0 0,-54 z" /></clipPath><clipPath
       id="clipPath4553"
       clipPathUnits="userSpaceOnUse"><path
         id="path4555"
         d="m 261.682,272.1522 0,-54.5085 18.4943,0 0,54.5085 -18.4943,0 z" /></clipPath><clipPath
       id="clipPath4557"
       clipPathUnits="userSpaceOnUse"><path
         id="path4559"
         d="m 261,217 20,0 0,56 -20,0 0,-56 z" /></clipPath><clipPath
       id="clipPath4561"
       clipPathUnits="userSpaceOnUse"><path
         id="path4563"
         d="M 0,4 596,4 596,837 0,837 0,4 Z" /></clipPath><clipPath
       id="clipPath4565"
       clipPathUnits="userSpaceOnUse"><path
         id="path4567"
         d="M 0,838 0,4.613693 l 595.2756,0 L 595.2756,838 0,838 Z" /></clipPath><clipPath
       id="clipPath4569"
       clipPathUnits="userSpaceOnUse"><path
         id="path4571"
         d="M 0,4 596,4 596,837 0,837 0,4 Z" /></clipPath><clipPath
       id="clipPath4573"
       clipPathUnits="userSpaceOnUse"><path
         id="path4575"
         d="M 0,4 596,4 596,837 0,837 0,4 Z" /></clipPath><clipPath
       id="clipPath4577"
       clipPathUnits="userSpaceOnUse"><path
         id="path4579"
         d="M 0,838 0,4.613693 l 595.2756,0 L 595.2756,838 0,838 Z" /></clipPath><clipPath
       id="clipPath4581"
       clipPathUnits="userSpaceOnUse"><path
         id="path4583"
         d="M 0,4 596,4 596,837 0,837 0,4 Z" /></clipPath><clipPath
       id="clipPath4585"
       clipPathUnits="userSpaceOnUse"><path
         id="path4587"
         d="M 0,4 596,4 596,837 0,837 0,4 Z" /></clipPath><clipPath
       id="clipPath4589"
       clipPathUnits="userSpaceOnUse"><path
         id="path4591"
         d="m 209.3096,675.0281 0,-72.8708 77.6497,0 0,72.8708 -77.6497,0 z" /></clipPath><clipPath
       id="clipPath4593"
       clipPathUnits="userSpaceOnUse"><path
         id="path4595"
         d="M 0,4 596,4 596,837 0,837 0,4 Z" /></clipPath><clipPath
       id="clipPath4597"
       clipPathUnits="userSpaceOnUse"><path
         id="path4599"
         d="M 0,4 596,4 596,837 0,837 0,4 Z" /></clipPath></defs><g
     transform="matrix(1.25,0,0,-1.25,-1.3351125,1046.8738)"
     id="g4459"><g
       transform="matrix(0,1,-1,0,714.93279,343.66696)"
       id="g4463"><g
         clip-path="url(#clipPath4467)"
         id="g4465"><g
           clip-path="url(#clipPath4473)"
           id="g4471"><g
             id="g4477" /><g
             id="g4601"><g
               id="g4603"
               clip-path="url(#clipPath4479)"><g
                 id="g5037"><g
                   id="g4631"><g
                     id="g4633"
                     clip-path="url(#clipPath4509)"><g
                       id="g4635"
                       clip-path="url(#clipPath4513)"><path
                         id="path4637"
                         style="fill:#9f3198;fill-opacity:1;fill-rule:nonzero;stroke:none"
                         d="m 474.847,554.2123 c 2.9207,14.0415 1.7354,29.1858 -3.7599,43.5062 0.5897,0.3141 1.176,0.6291 1.759,0.9433 7.9246,-13.8878 13.9818,-29.1909 17.53,-45.7591 -5.1803,0.4385 -10.3564,0.8753 -15.5291,1.3096" /><path
                         id="path4639"
                         style="fill:#e85c1b;fill-opacity:1;fill-rule:nonzero;stroke:none"
                         d="m 452.2113,515.2617 c 10.9267,9.482 18.4834,22.1139 21.9576,35.9899 5.6339,-0.6225 11.2737,-1.2483 16.9185,-1.8791 3.1743,-16.7236 3.7733,-34.6803 0.8559,-53.2804 -13.277,6.4604 -26.5213,12.8503 -39.732,19.1696" /><path
                         id="path4641"
                         style="fill:#231f20;fill-opacity:1;fill-rule:nonzero;stroke:none"
                         d="m 462.5667,535.3322 c -4.5453,0 -8.2287,3.6826 -8.2287,8.2287 0,4.5444 3.6834,8.2278 8.2287,8.2278 4.5444,0 8.2286,-3.6834 8.2286,-8.2278 0,-4.5461 -3.6842,-8.2287 -8.2286,-8.2287" /><path
                         id="path4643"
                         style="fill:#ffffff;fill-opacity:1;fill-rule:nonzero;stroke:none"
                         d="m 464.0527,541.5259 c -1.3893,1.0424 -1.8925,2.7165 -1.1239,3.738 0.7661,1.0239 2.5158,1.0063 3.9026,-0.0362 1.3886,-1.0424 1.8934,-2.7157 1.1248,-3.7388 -0.7678,-1.0214 -2.515,-1.0055 -3.9035,0.037" /><path
                         id="path4645"
                         style="fill:#231f20;fill-opacity:1;fill-rule:nonzero;stroke:none"
                         d="m 478.6543,546.8271 c 0.3141,9.9414 -3.2004,20.1533 -10.7991,28.2123 0.8988,0.9886 1.7985,1.9773 2.6981,2.9652 10.3127,-8.2388 16.1431,-20.0063 17.2368,-32.2913 l -9.1358,1.1138 z" /><path
                         id="path4647"
                         style="fill:#231f20;fill-opacity:1;fill-rule:nonzero;stroke:none"
                         d="m 464.2787,518.397 c 8.3697,6.4705 13.1863,15.8533 14.1951,25.7267 3.166,-0.5906 6.3311,-1.1819 9.4971,-1.7716 0.2301,-12.3547 -4.2991,-24.9522 -13.8415,-34.7811 -3.2836,3.6087 -6.5672,7.2173 -9.8507,10.826" /><path
                         id="path4649"
                         style="fill:#231f20;fill-opacity:1;fill-rule:nonzero;stroke:none"
                         d="m 451.4357,709.9696 -0.6627,-0.0949 -0.0941,-0.6619 -1.5137,-0.0949 0,4.7468 1.5137,-0.094 0.0941,-0.6628 0.6627,-0.0949 7.7112,0 0.5679,0.0949 0.0949,0.6628 1.5137,0.094 0.0949,-3.99 -2.2714,0.0949 -7.7112,0 z" /><path
                         id="path4651"
                         style="fill:#231f20;fill-opacity:1;fill-rule:nonzero;stroke:none"
                         d="m 453.06,702.7477 0,0.1419 c 0,0.8199 -0.189,1.8447 -1.2298,1.8447 -0.5208,0 -1.0567,-0.331 -1.0567,-0.8988 0,-0.4259 0.2369,-0.8039 0.5519,-1.0878 l 1.7346,0 z m -1.2777,-3.0434 c -0.5359,0 -1.1189,0.1101 -1.1189,-0.5678 0,-0.063 0,-0.126 0.0152,-0.1898 l -1.5137,-0.0941 c -0.142,0.4099 -0.189,0.8358 -0.189,1.2768 0,0.8366 0.173,1.7354 0.9929,2.1453 l 0,0.189 c -0.6149,0.6149 -0.9929,1.4978 -0.9929,2.3655 0,1.5137 0.9458,2.7602 2.5225,2.7602 2.2873,0 2.8392,-2.0034 2.8392,-3.911 l 0,-0.9307 0.4889,0 c 0.3939,0 0.8669,-0.079 1.1667,0.2209 0.2999,0.2839 0.394,0.6779 0.394,1.0878 0,0.4099 -0.126,0.8047 -0.331,1.1667 l -0.6148,0.095 0,1.5136 1.7505,0.095 c 0.52,-1.0097 0.7098,-2.2076 0.7098,-3.3273 0,-0.8047 -0.1109,-1.7195 -0.4418,-2.4603 -0.4889,-1.0568 -1.2147,-1.4348 -2.3495,-1.4348 l -3.3281,0 z" /><path
                         id="path4653"
                         style="fill:#231f20;fill-opacity:1;fill-rule:nonzero;stroke:none"
                         d="m 456.0089,691.5044 c 0.2369,0.394 0.3788,0.8358 0.3788,1.2777 0,0.4569 -0.1579,1.1197 -0.7257,1.1197 -0.268,0 -0.4419,-0.1109 -0.599,-0.3159 -0.2049,-0.2679 -0.4578,-1.0248 -0.5678,-1.3566 -0.4578,-1.2768 -1.0248,-3.0433 -2.6653,-3.0433 -2.0505,0 -2.8544,2.1765 -2.8544,3.927 0,1.0089 0.1739,2.9173 0.5679,3.864 l 2.1445,-0.0949 -0.0949,-1.5137 -0.583,-0.0949 c -0.3158,-0.6149 -0.5208,-1.1197 -0.5208,-1.8136 0,-0.4569 0.079,-1.2306 0.6939,-1.2306 0.2679,0 0.4258,0.1269 0.5838,0.3318 0.2368,0.331 0.5359,1.0878 0.6938,1.4978 0.5048,1.2457 1.1038,2.7762 2.7124,2.7762 2.2394,0 2.7283,-2.2395 2.7283,-4.053 0,-0.9938 -0.126,-2.0026 -0.3788,-2.9812 l -2.1765,0.0949 0.0949,1.5137 0.5679,0.0949 z" /><path
                         id="path4655"
                         style="fill:#231f20;fill-opacity:1;fill-rule:nonzero;stroke:none"
                         d="m 456.0089,681.6805 c 0.2369,0.394 0.3788,0.8358 0.3788,1.2777 0,0.4569 -0.1579,1.1197 -0.7257,1.1197 -0.268,0 -0.4419,-0.1109 -0.599,-0.3158 -0.2049,-0.268 -0.4578,-1.0248 -0.5678,-1.3566 -0.4578,-1.2768 -1.0248,-3.0434 -2.6653,-3.0434 -2.0505,0 -2.8544,2.1765 -2.8544,3.927 0,1.0089 0.1739,2.9174 0.5679,3.864 l 2.1445,-0.0949 -0.0949,-1.5137 -0.583,-0.0949 c -0.3158,-0.6149 -0.5208,-1.1197 -0.5208,-1.8135 0,-0.457 0.079,-1.2306 0.6939,-1.2306 0.2679,0 0.4258,0.1268 0.5838,0.3318 0.2368,0.3309 0.5359,1.0878 0.6938,1.4977 0.5048,1.2457 1.1038,2.7762 2.7124,2.7762 2.2394,0 2.7283,-2.2395 2.7283,-4.053 0,-0.9937 -0.126,-2.0026 -0.3788,-2.9812 l -2.1765,0.0949 0.0949,1.5137 0.5679,0.0949 z" /><path
                         id="path4657"
                         style="fill:#231f20;fill-opacity:1;fill-rule:nonzero;stroke:none"
                         d="m 449.2909,669.5227 c -0.1571,1.0727 -0.315,2.1286 -0.315,3.2012 0,1.1508 0.3629,2.5394 1.1348,3.4222 0.8358,0.9618 2.2243,1.4507 3.4852,1.4507 1.1357,0 2.3024,-0.394 3.1071,-1.2298 0.9308,-0.9467 1.1987,-2.2235 1.1987,-3.5171 0,-1.1348 -0.1579,-2.3024 -0.3788,-3.4221 l -2.2705,0.0949 0.094,1.5137 0.7577,0.0949 c 0.189,0.394 0.2831,0.9148 0.2831,1.3406 0,1.5608 -1.4666,1.8926 -2.7434,1.8926 -1.6406,0 -2.8703,-0.6788 -2.8703,-2.4453 0,-0.8198 0.126,-1.6397 0.3939,-2.3965 l -1.8765,0 z" /><path
                         id="path4659"
                         style="fill:#231f20;fill-opacity:1;fill-rule:nonzero;stroke:none"
                         d="m 451.4357,663.452 -0.6627,-0.0949 -0.0941,-0.6619 -1.5137,-0.0949 0,4.7468 1.5137,-0.0941 0.0941,-0.6627 0.6627,-0.095 7.7112,0 0.5679,0.095 0.0949,0.6627 1.5137,0.0941 0.0949,-3.99 -2.2714,0.0949 -1.6237,0 -1.4196,0.189 0,-0.189 c 1.1197,-0.5519 1.7976,-1.4826 1.7976,-2.7594 0,-0.7257 -0.1579,-1.3247 -0.6779,-1.8614 -0.6148,-0.6309 -1.3246,-0.709 -2.1764,-0.709 l -3.6112,0 -0.6627,-0.0949 -0.0941,-0.6628 -1.5137,-0.094 0,4.7468 1.5137,-0.0949 0.0941,-0.6628 0.6627,-0.0941 3.3273,0 c 0.2528,0 0.5838,-0.0159 0.7887,0.142 0.1739,0.126 0.268,0.3469 0.268,0.5678 0,0.6779 -0.6779,1.2298 -1.1987,1.5767 l -3.1853,0 z" /><path
                         id="path4661"
                         style="fill:#231f20;fill-opacity:1;fill-rule:nonzero;stroke:none"
                         d="m 454.2901,650.0485 c 0.8988,0.0159 2.0974,0.0949 2.0974,1.1356 0,0.9938 -1.2927,1.3407 -2.0974,1.4028 l 0,-2.5384 z m -1.4196,2.5233 c -1.4037,-0.0789 -2.1446,-1.2146 -2.1446,-2.5553 0,-0.9298 0.205,-1.9395 0.5838,-2.8064 l -1.8614,0 c -0.2831,1.1508 -0.4729,2.3965 -0.4729,3.5952 0,1.1516 0.3158,2.4444 1.0727,3.3432 0.8358,0.9778 2.2234,1.5137 3.4851,1.5137 2.7283,0 4.368,-1.8447 4.368,-4.5259 0,-1.2617 -0.3309,-2.3806 -1.3877,-3.1383 -1.0407,-0.7249 -2.2545,-0.7879 -3.643,-0.7879 l 0,5.3617 z" /><path
                         id="path4663"
                         style="fill:#e85c1b;fill-opacity:1;fill-rule:nonzero;stroke:none"
                         d="m 457.3152,636.5815 c 0.4452,0 0.8206,0.3058 0.8206,0.7652 0,0.4452 -0.362,0.709 -0.7786,0.709 -0.515,0 -0.9879,-0.3478 -1.4188,-0.5838 0.2915,-0.4452 0.8207,-0.8904 1.3768,-0.8904 m -3.213,2.4898 c -0.3201,0.4863 -0.9316,0.7786 -1.502,0.7786 -1.1961,0 -2.3091,-1.1541 -2.3091,-2.3368 0,-0.2915 0.0697,-0.709 0.2091,-0.9736 1.1122,0.9601 2.3504,1.7665 3.602,2.5318 m 0.9324,-7.4693 -1.3491,0.084 -0.084,0.6669 c -0.9735,0.2646 -1.8219,0.9047 -2.4755,1.6691 l -0.5426,-0.4586 -0.0832,-0.8341 -1.3356,-0.084 0,2.7678 0.4452,0.4032 c -0.5149,0.6678 -0.6955,1.5439 -0.6955,2.3788 0,1.9052 1.0433,4.1303 3.213,4.1303 1.5439,0 2.5595,-1.265 3.0181,-2.6006 0.5838,0.3755 1.4045,0.7929 2.1,0.7929 0.7098,0 1.3214,-0.4452 1.7111,-1.0155 0.4175,-0.6115 0.5149,-1.2651 0.5149,-1.9891 0,-0.6536 -0.126,-1.4322 -0.4729,-2.0026 -0.3755,-0.5981 -0.9735,-1.0147 -1.7111,-1.0147 -1.2658,0 -2.0311,1.265 -2.3091,2.3503 l -2.851,-2.0034 c 0.4032,-0.4864 0.8761,-0.5704 1.4742,-0.5561 l 0.084,0.5427 1.3491,0.0831 0,-3.3104 z" /><path
                         id="path4665"
                         style="fill:#231f20;fill-opacity:1;fill-rule:nonzero;stroke:none"
                         d="m 451.4357,622.2101 -0.6627,-0.0941 -0.0941,-0.6627 -1.5137,-0.095 0,4.7469 1.5137,-0.0941 0.0941,-0.6628 0.6627,-0.0949 7.7112,0 0.5679,0.0949 0.0949,0.6628 1.5137,0.0941 0.0949,-3.9892 -2.2714,0.0941 -7.7112,0 z" /><path
                         id="path4667"
                         style="fill:#231f20;fill-opacity:1;fill-rule:nonzero;stroke:none"
                         d="m 453.06,614.9881 0,0.142 c 0,0.8198 -0.189,1.8446 -1.2298,1.8446 -0.5208,0 -1.0567,-0.331 -1.0567,-0.8988 0,-0.4259 0.2369,-0.8039 0.5519,-1.0878 l 1.7346,0 z m -1.2777,-3.0433 c -0.5359,0 -1.1189,0.11 -1.1189,-0.5679 0,-0.063 0,-0.126 0.0152,-0.1898 l -1.5137,-0.0941 c -0.142,0.4099 -0.189,0.8358 -0.189,1.2768 0,0.8367 0.173,1.7355 0.9929,2.1454 l 0,0.189 c -0.6149,0.6149 -0.9929,1.4977 -0.9929,2.3654 0,1.5137 0.9458,2.7603 2.5225,2.7603 2.2873,0 2.8392,-2.0034 2.8392,-3.9111 l 0,-0.9307 0.4889,0 c 0.3939,0 0.8669,-0.079 1.1667,0.2209 0.2999,0.2839 0.394,0.6779 0.394,1.0878 0,0.4099 -0.126,0.8047 -0.331,1.1668 l -0.6148,0.0949 0,1.5137 1.7505,0.0949 c 0.52,-1.0097 0.7098,-2.2075 0.7098,-3.3272 0,-0.8048 -0.1109,-1.7195 -0.4418,-2.4604 -0.4889,-1.0567 -1.2147,-1.4347 -2.3495,-1.4347 l -3.3281,0 z" /><path
                         id="path4669"
                         style="fill:#231f20;fill-opacity:1;fill-rule:nonzero;stroke:none"
                         d="m 456.0089,603.7448 c 0.2369,0.3939 0.3788,0.8358 0.3788,1.2776 0,0.457 -0.1579,1.1197 -0.7257,1.1197 -0.268,0 -0.4419,-0.1108 -0.599,-0.3158 -0.2049,-0.268 -0.4578,-1.0248 -0.5678,-1.3566 -0.4578,-1.2768 -1.0248,-3.0433 -2.6653,-3.0433 -2.0505,0 -2.8544,2.1764 -2.8544,3.927 0,1.0088 0.1739,2.9173 0.5679,3.864 l 2.1445,-0.0949 -0.0949,-1.5137 -0.583,-0.0949 c -0.3158,-0.6149 -0.5208,-1.1198 -0.5208,-1.8136 0,-0.457 0.079,-1.2306 0.6939,-1.2306 0.2679,0 0.4258,0.1268 0.5838,0.3318 0.2368,0.331 0.5359,1.0878 0.6938,1.4977 0.5048,1.2457 1.1038,2.7762 2.7124,2.7762 2.2394,0 2.7283,-2.2394 2.7283,-4.053 0,-0.9937 -0.126,-2.0025 -0.3788,-2.9811 l -2.1765,0.0949 0.0949,1.5145 0.5679,0.0941 z" /><path
                         id="path4671"
                         style="fill:#231f20;fill-opacity:1;fill-rule:nonzero;stroke:none"
                         d="m 456.0089,593.9211 c 0.2369,0.3939 0.3788,0.8358 0.3788,1.2776 0,0.457 -0.1579,1.1189 -0.7257,1.1189 -0.268,0 -0.4419,-0.1101 -0.599,-0.315 -0.2049,-0.268 -0.4578,-1.0248 -0.5678,-1.3558 -0.4578,-1.2776 -1.0248,-3.0441 -2.6653,-3.0441 -2.0505,0 -2.8544,2.1764 -2.8544,3.927 0,1.0088 0.1739,2.9173 0.5679,3.864 l 2.1445,-0.095 -0.0949,-1.5136 -0.583,-0.095 c -0.3158,-0.6148 -0.5208,-1.1197 -0.5208,-1.8135 0,-0.457 0.079,-1.2298 0.6939,-1.2298 0.2679,0 0.4258,0.126 0.5838,0.331 0.2368,0.3309 0.5359,1.0878 0.6938,1.4977 0.5048,1.2457 1.1038,2.7754 2.7124,2.7754 2.2394,0 2.7283,-2.2386 2.7283,-4.0522 0,-0.9937 -0.126,-2.0034 -0.3788,-2.9812 l -2.1765,0.095 0.0949,1.5145 0.5679,0.0941 z" /><path
                         id="path4673"
                         style="fill:#231f20;fill-opacity:1;fill-rule:nonzero;stroke:none"
                         d="m 449.2909,581.7631 c -0.1571,1.0727 -0.315,2.1294 -0.315,3.2013 0,1.1516 0.3629,2.5393 1.1348,3.4222 0.8358,0.9618 2.2243,1.4506 3.4852,1.4506 1.1357,0 2.3024,-0.3939 3.1071,-1.2297 0.9308,-0.9467 1.1987,-2.2235 1.1987,-3.5171 0,-1.1349 -0.1579,-2.3025 -0.3788,-3.4222 l -2.2705,0.0949 0.094,1.5137 0.7577,0.0949 c 0.189,0.394 0.2831,0.9148 0.2831,1.3407 0,1.5607 -1.4666,1.8925 -2.7434,1.8925 -1.6406,0 -2.8703,-0.6787 -2.8703,-2.4444 0,-0.8198 0.126,-1.6405 0.3939,-2.3974 l -1.8765,0 z" /><path
                         id="path4675"
                         style="fill:#231f20;fill-opacity:1;fill-rule:nonzero;stroke:none"
                         d="m 451.4357,575.6928 -0.6627,-0.0949 -0.0941,-0.6619 -1.5137,-0.095 0,4.7469 1.5137,-0.0949 0.0941,-0.662 0.6627,-0.0949 7.7112,0 0.5679,0.0949 0.0949,0.662 1.5137,0.0949 0.0949,-3.99 -2.2714,0.0949 -1.6237,0 -1.4196,0.189 0,-0.189 c 1.1197,-0.5519 1.7976,-1.4826 1.7976,-2.7602 0,-0.725 -0.1579,-1.3247 -0.6779,-1.8606 -0.6148,-0.6309 -1.3246,-0.7098 -2.1764,-0.7098 l -3.6112,0 -0.6627,-0.0941 -0.0941,-0.6628 -1.5137,-0.0941 0,4.7469 1.5137,-0.0949 0.0941,-0.6628 0.6627,-0.0941 3.3273,0 c 0.2528,0 0.5838,-0.0159 0.7887,0.142 0.1739,0.126 0.268,0.3469 0.268,0.567 0,0.6787 -0.6779,1.2306 -1.1987,1.5775 l -3.1853,0 z" /><path
                         id="path4677"
                         style="fill:#231f20;fill-opacity:1;fill-rule:nonzero;stroke:none"
                         d="m 454.2901,562.2891 c 0.8988,0.0159 2.0974,0.0949 2.0974,1.1357 0,0.9928 -1.2927,1.3398 -2.0974,1.4028 l 0,-2.5385 z m -1.4196,2.5233 c -1.4037,-0.0789 -2.1446,-1.2146 -2.1446,-2.5552 0,-0.9299 0.205,-1.9396 0.5838,-2.8065 l -1.8614,0 c -0.2831,1.1508 -0.4729,2.3965 -0.4729,3.5952 0,1.1517 0.3158,2.4444 1.0727,3.3432 0.8358,0.9778 2.2234,1.5137 3.4851,1.5137 2.7283,0 4.368,-1.8446 4.368,-4.5259 0,-1.2617 -0.3309,-2.3806 -1.3877,-3.1383 -1.0407,-0.7249 -2.2545,-0.7879 -3.643,-0.7879 l 0,5.3617 z" /><path
                         id="path4679"
                         style="fill:#231f20;fill-opacity:1;fill-rule:nonzero;stroke:none"
                         d="m 433.5894,600.8943 7.7902,-1.47 0,-0.9114 -4.8829,0.9333 0,-0.0219 c 0.1864,-0.1646 0.3847,-0.362 0.5376,-0.4939 l 1.8656,-1.8766 0,-1.1188 -2.1832,2.315 -3.1273,-1.591 0,1.0097 2.6225,1.2726 -0.604,0.6695 -2.0185,0.3839 0,0.8996 z" /><path
                         id="path4681"
                         style="fill:#231f20;fill-opacity:1;fill-rule:nonzero;stroke:none"
                         d="m 438.8998,590.7229 -3.7632,0.7132 c -0.593,0.11 -1.1079,0.1865 -1.5473,0.2411 l 0,0.8232 0.9988,-0.1428 0,0.0218 c -0.6913,0.4721 -1.1197,1.1743 -1.1197,1.8766 0,0.6804 0.3293,1.3935 1.5363,1.3935 0.252,0 0.5376,-0.0327 0.8888,-0.0991 l 3.0063,-0.5703 0,-0.9106 -2.9627,0.5594 c -0.2965,0.0656 -0.5485,0.0992 -0.7786,0.0992 -0.5486,0 -0.9215,-0.231 -0.9215,-0.856 0,-0.6586 0.7677,-1.5036 1.9421,-1.7228 l 2.7207,-0.5158 0,-0.9106 z" /><path
                         id="path4683"
                         style="fill:#231f20;fill-opacity:1;fill-rule:nonzero;stroke:none"
                         d="m 433.5894,590.1302 3.7632,-0.7131 c 0.5931,-0.121 1.1088,-0.1865 1.5473,-0.252 l 0,-0.8123 -1.0424,0.1319 0,-0.0219 c 0.7459,-0.4721 1.1634,-1.1852 1.1634,-1.9639 0,-0.6367 -0.3621,-1.3499 -1.481,-1.3499 -0.231,0 -0.5712,0.0437 -0.8568,0.0983 l -3.0937,0.593 0,0.9106 3.061,-0.5813 c 0.2091,-0.0445 0.4611,-0.0773 0.6804,-0.0773 0.5376,0 0.9324,0.2084 0.9324,0.8342 0,0.6476 -0.7787,1.5691 -2.095,1.8102 l -2.5788,0.483 0,0.9105 z" /><path
                         id="path4685"
                         style="fill:#231f20;fill-opacity:1;fill-rule:nonzero;stroke:none"
                         d="m 434.511,584.227 c -0.1537,-0.252 -0.3293,-0.7132 -0.3293,-1.1408 0,-0.6148 0.3948,-1.0096 0.8669,-1.0096 0.4166,0 0.6695,0.1864 0.9769,0.735 0.3402,0.6148 0.8115,0.9542 1.3491,0.9542 0.9324,0 1.6464,-0.8005 1.6464,-1.9202 0,-0.4822 -0.1319,-0.9106 -0.2638,-1.108 l -0.6913,0.2528 c 0.11,0.1865 0.2411,0.5267 0.2411,0.9215 0,0.5485 -0.3394,0.9433 -0.8006,0.9433 -0.3838,0 -0.6258,-0.252 -0.8887,-0.724 -0.3402,-0.5922 -0.8013,-0.998 -1.3935,-0.998 -1.1189,0 -1.7556,0.9106 -1.7556,2.0295 0.0109,0.5703 0.1864,1.0752 0.3729,1.3163 l 0.6695,-0.252 z" /><path
                         id="path4687"
                         style="fill:#231f20;fill-opacity:1;fill-rule:nonzero;stroke:none"
                         d="m 440.1725,577.8301 -1.2726,0.2411 0,-1.2726 -0.7132,0.1428 0,1.2726 -2.5788,0.4939 c -0.2956,0.0546 -0.5703,0.0991 -0.845,0.0991 -0.3175,0 -0.5149,-0.1537 -0.5149,-0.5048 0,-0.1537 0.0109,-0.3075 0.0437,-0.4284 l -0.7241,0.0445 c -0.0555,0.1646 -0.0991,0.4385 -0.0991,0.7022 0,0.8115 0.4939,1.1189 1.0315,1.1189 0.3074,0 0.614,-0.0327 0.9987,-0.11 l 2.688,-0.5267 0,0.7686 0.7132,-0.1428 0,-0.7577 0.9761,-0.1856 0.2965,-0.9551 z" /><path
                         id="path4689"
                         style="fill:#231f20;fill-opacity:1;fill-rule:nonzero;stroke:none"
                         d="m 436.914,573.902 -0.7132,0.1319 0,2.6334 0.7132,-0.1428 0,-2.6225 z" /><path
                         id="path4691"
                         style="fill:#231f20;fill-opacity:1;fill-rule:nonzero;stroke:none"
                         d="m 437.6381,567.7467 c 0.4275,0 0.6694,0.3293 0.6694,0.8115 0,0.8669 -0.845,1.5145 -1.6783,1.7337 -0.0117,-1.4263 0.1747,-2.5452 0.9979,-2.5452 l 0.011,0 z m -3.7414,-0.1974 c -0.2302,0.3948 -0.4276,1.0425 -0.4276,1.7556 0,1.4045 0.9652,2.0186 2.1387,2.0186 1.6027,0 3.4129,-1.1844 3.4129,-2.8964 0,-1.0096 -0.604,-1.5582 -1.3608,-1.5582 -1.3936,0 -1.7665,1.5692 -1.7338,3.5331 -0.2301,0.0437 -0.724,0.0109 -1.0088,-0.1101 -0.4721,-0.2083 -0.7132,-0.6358 -0.7132,-1.1844 0,-0.6258 0.1974,-1.0978 0.373,-1.4271 l -0.6804,-0.1311 z" /><path
                         id="path4693"
                         style="fill:#231f20;fill-opacity:1;fill-rule:nonzero;stroke:none"
                         d="m 433.5894,566.4079 3.7632,-0.7131 c 0.5931,-0.121 1.1088,-0.1865 1.5473,-0.252 l 0,-0.8123 -1.0424,0.1319 0,-0.0219 c 0.7459,-0.472 1.1634,-1.1852 1.1634,-1.9639 0,-0.6367 -0.3621,-1.3499 -1.481,-1.3499 -0.231,0 -0.5712,0.0437 -0.8568,0.0983 l -3.0937,0.5931 0,0.9105 3.061,-0.5813 c 0.2091,-0.0445 0.4611,-0.0772 0.6804,-0.0772 0.5376,0 0.9324,0.2083 0.9324,0.8341 0,0.6476 -0.7787,1.5691 -2.095,1.8102 l -2.5788,0.483 0,0.9105 z" /><path
                         id="path4695"
                         style="fill:#231f20;fill-opacity:1;fill-rule:nonzero;stroke:none"
                         d="m 433.7978,554.8979 c -0.1318,0.2747 -0.3292,0.8232 -0.3292,1.5364 0,1.3709 0.9332,2.0403 2.063,2.0403 1.8102,0 3.4776,-1.3381 3.4776,-3.2474 0,-0.4939 -0.142,-0.9433 -0.2302,-1.108 l -0.724,0.263 c 0.0991,0.2083 0.1974,0.5048 0.1974,0.8996 0,1.3826 -1.3608,2.2495 -2.6116,2.2495 -0.8551,0 -1.4154,-0.4502 -1.4154,-1.3163 0,-0.5384 0.1646,-0.955 0.2965,-1.2289 l -0.7241,-0.0882 z" /><path
                         id="path4697"
                         style="fill:#231f20;fill-opacity:1;fill-rule:nonzero;stroke:none"
                         d="m 438.8998,548.7316 -3.7632,0.7131 c -0.593,0.1101 -1.1079,0.1865 -1.5473,0.2411 l 0,0.8232 0.9988,-0.1428 0,0.0218 c -0.6913,0.4721 -1.1197,1.1744 -1.1197,1.8766 0,0.6804 0.3293,1.3936 1.5363,1.3936 0.252,0 0.5376,-0.0328 0.8888,-0.0992 l 3.0063,-0.5703 0,-0.9106 -2.9627,0.5595 c -0.2965,0.0655 -0.5485,0.0991 -0.7786,0.0991 -0.5486,0 -0.9215,-0.231 -0.9215,-0.856 0,-0.6585 0.7677,-1.5036 1.9421,-1.7228 l 2.7207,-0.5158 0,-0.9105 z" /><path
                         id="path4699"
                         style="fill:#231f20;fill-opacity:1;fill-rule:nonzero;stroke:none"
                         d="m 433.5894,548.1279 7.7902,-1.4809 0,-0.9114 -7.7902,1.4927 0,0.8996 z" /><path
                         id="path4701"
                         style="fill:#231f20;fill-opacity:1;fill-rule:nonzero;stroke:none"
                         d="m 440.1725,543.278 -1.2726,0.2411 0,-1.2726 -0.7132,0.1428 0,1.2726 -2.5788,0.4939 c -0.2956,0.0546 -0.5703,0.0991 -0.845,0.0991 -0.3175,0 -0.5149,-0.1537 -0.5149,-0.5048 0,-0.1537 0.0109,-0.3074 0.0437,-0.4284 l -0.7241,0.0445 c -0.0555,0.1647 -0.0991,0.4385 -0.0991,0.7023 0,0.8114 0.4939,1.1188 1.0315,1.1188 0.3074,0 0.614,-0.0327 0.9987,-0.11 l 2.688,-0.5267 0,0.7686 0.7132,-0.1428 0,-0.7577 0.9761,-0.1856 0.2965,-0.9551 z" /><path
                         id="path4703"
                         style="fill:#231f20;fill-opacity:1;fill-rule:nonzero;stroke:none"
                         d="m 438.8998,537.013 -3.7632,0.7132 c -0.593,0.11 -1.1079,0.1865 -1.5473,0.2411 l 0,0.8232 0.9988,-0.1428 0,0.0218 c -0.6913,0.4721 -1.1197,1.1743 -1.1197,1.8766 0,0.6804 0.3293,1.3936 1.5363,1.3936 0.252,0 0.5376,-0.0328 0.8888,-0.0992 l 3.0063,-0.5703 0,-0.9106 -2.9627,0.5594 c -0.2965,0.0656 -0.5485,0.0992 -0.7786,0.0992 -0.5486,0 -0.9215,-0.231 -0.9215,-0.856 0,-0.6586 0.7677,-1.5036 1.9421,-1.7228 l 2.7207,-0.5158 0,-0.9106 z" /><path
                         id="path4705"
                         style="fill:#231f20;fill-opacity:1;fill-rule:nonzero;stroke:none"
                         d="m 438.8998,531.2416 -3.7632,0.7131 c -0.593,0.1101 -1.1079,0.1865 -1.5473,0.2411 l 0,0.8232 0.9988,-0.1428 0,0.0219 c -0.6913,0.472 -1.1197,1.1743 -1.1197,1.8765 0,0.6804 0.3293,1.3936 1.5363,1.3936 0.252,0 0.5376,-0.0328 0.8888,-0.0991 l 3.0063,-0.5704 0,-0.9106 -2.9627,0.5595 c -0.2965,0.0655 -0.5485,0.0991 -0.7786,0.0991 -0.5486,0 -0.9215,-0.231 -0.9215,-0.856 0,-0.6585 0.7677,-1.5036 1.9421,-1.7228 l 2.7207,-0.5158 0,-0.9105 z" /><path
                         id="path4707"
                         style="fill:#231f20;fill-opacity:1;fill-rule:nonzero;stroke:none"
                         d="m 433.5894,530.6489 3.423,-0.6477 c 0.6913,-0.131 1.3936,-0.2192 1.8875,-0.2738 l 0,-0.8014 c -0.373,0.0445 -0.7459,0.0882 -1.1525,0.1428 l 0,-0.0327 c 0.7249,-0.3402 1.2735,-0.9106 1.2735,-1.6238 0,-0.0772 -0.0118,-0.1864 -0.0219,-0.2528 l -0.9005,0.1756 c 0.0118,0.0554 0.0227,0.1428 0.0227,0.2419 0,0.7896 -0.9551,1.4918 -2.1949,1.7228 l -2.3369,0.4385 0,0.9106 z" /><path
                         id="path4709"
                         style="fill:#231f20;fill-opacity:1;fill-rule:nonzero;stroke:none"
                         d="m 437.6381,523.5938 c 0.4275,0 0.6694,0.3293 0.6694,0.8114 0,0.8669 -0.845,1.5145 -1.6783,1.7338 -0.0117,-1.4263 0.1747,-2.5452 0.9979,-2.5452 l 0.011,0 z m -3.7414,-0.1974 c -0.2302,0.3948 -0.4276,1.0424 -0.4276,1.7556 0,1.4045 0.9652,2.0185 2.1387,2.0185 1.6027,0 3.4129,-1.1844 3.4129,-2.8963 0,-1.0097 -0.604,-1.5582 -1.3608,-1.5582 -1.3936,0 -1.7665,1.5691 -1.7338,3.533 -0.2301,0.0437 -0.724,0.0109 -1.0088,-0.11 -0.4721,-0.2083 -0.7132,-0.6359 -0.7132,-1.1844 0,-0.6258 0.1974,-1.0979 0.373,-1.4263 l -0.6804,-0.1319 z" /><path
                         id="path4711"
                         style="fill:#231f20;fill-opacity:1;fill-rule:nonzero;stroke:none"
                         d="m 438.0659,518.1296 c 0.1209,0.1865 0.2192,0.4939 0.2192,0.8778 0,1.2726 -1.349,2.2604 -2.7644,2.2604 -0.6367,0 -1.3062,-0.2192 -1.3062,-0.9987 0,-0.7023 0.8013,-1.5473 1.9975,-1.7775 l 1.8539,-0.362 z m 3.3138,-1.5255 -6.1119,1.1634 c -0.5485,0.1101 -1.1625,0.1974 -1.6783,0.2302 l 0,0.8341 1.0534,-0.1428 0,0.0219 c -0.7577,0.483 -1.1743,1.1524 -1.1743,1.9093 0,1.0315 0.845,1.5909 1.9311,1.5909 1.8875,0 3.6213,-1.4044 3.6213,-3.281 0,-0.3394 -0.0773,-0.7132 -0.1874,-0.9433 l 2.5461,-0.4721 0,-0.9106 z" /><path
                         id="path4713"
                         style="fill:#231f20;fill-opacity:1;fill-rule:nonzero;stroke:none"
                         d="m 438.8998,511.3157 -3.7632,0.7131 c -0.593,0.1101 -1.1079,0.1865 -1.5473,0.2411 l 0,0.8232 0.9988,-0.1428 0,0.0218 c -0.6913,0.4721 -1.1197,1.1744 -1.1197,1.8766 0,0.6804 0.3293,1.3936 1.5363,1.3936 0.252,0 0.5376,-0.0328 0.8888,-0.0991 l 3.0063,-0.5704 0,-0.9106 -2.9627,0.5595 c -0.2965,0.0655 -0.5485,0.0991 -0.7786,0.0991 -0.5486,0 -0.9215,-0.231 -0.9215,-0.856 0,-0.6585 0.7677,-1.5036 1.9421,-1.7228 l 2.7207,-0.5158 0,-0.9105 z" /><path
                         id="path4715"
                         style="fill:#231f20;fill-opacity:1;fill-rule:nonzero;stroke:none"
                         d="m 433.7978,507.0693 c -0.1318,0.2747 -0.3292,0.8232 -0.3292,1.5364 0,1.3708 0.9332,2.0403 2.063,2.0403 1.8102,0 3.4776,-1.3381 3.4776,-3.2474 0,-0.4939 -0.142,-0.9433 -0.2302,-1.108 l -0.724,0.2629 c 0.0991,0.2084 0.1974,0.5049 0.1974,0.8997 0,1.3826 -1.3608,2.2495 -2.6116,2.2495 -0.8551,0 -1.4154,-0.4502 -1.4154,-1.3163 0,-0.5384 0.1646,-0.9551 0.2965,-1.2289 l -0.7241,-0.0882 z" /><path
                         id="path4717"
                         style="fill:#231f20;fill-opacity:1;fill-rule:nonzero;stroke:none"
                         d="m 438.2197,502.1315 c 0.0327,0.1319 0.0764,0.3293 0.0764,0.6367 0,1.3709 -1.4372,2.4906 -2.9072,2.5016 -0.5922,0 -1.1743,-0.2084 -1.1743,-0.9114 0,-0.7569 0.9878,-1.6565 2.4032,-1.9194 l 1.6019,-0.3075 z m -4.6301,0.5922 c 0.3184,0 0.8224,-0.0546 1.3709,-0.1209 l 0,0.0226 c -1.0971,0.5813 -1.4919,1.3054 -1.4919,2.0622 0,0.9333 0.746,1.5255 1.7556,1.5255 1.843,0 3.796,-1.36 3.796,-3.6759 0,-0.5048 -0.0874,-1.0642 -0.2083,-1.4263 l -2.7645,0.5376 c -0.9214,0.1756 -1.8656,0.2529 -2.4578,0.231 l 0,0.8442 z" /><path
                         id="path4719"
                         style="fill:#231f20;fill-opacity:1;fill-rule:nonzero;stroke:none"
                         d="m 440.1725,498.1703 -1.2726,0.2411 0,-1.2726 -0.7132,0.1428 0,1.2726 -2.5788,0.4939 c -0.2956,0.0546 -0.5703,0.0992 -0.845,0.0992 -0.3175,0 -0.5149,-0.1538 -0.5149,-0.5049 0,-0.1537 0.0109,-0.3074 0.0437,-0.4284 l -0.7241,0.0445 c -0.0555,0.1647 -0.0991,0.4385 -0.0991,0.7023 0,0.8114 0.4939,1.1189 1.0315,1.1189 0.3074,0 0.614,-0.0328 0.9987,-0.1101 l 2.688,-0.5267 0,0.7686 0.7132,-0.1428 0,-0.7576 0.9761,-0.1857 0.2965,-0.9551 z" /><path
                         id="path4721"
                         style="fill:#231f20;fill-opacity:1;fill-rule:nonzero;stroke:none"
                         d="m 439.8106,495.3835 c 0,0.3074 0.241,0.5157 0.5703,0.5157 0.3511,-0.0109 0.6149,-0.2747 0.6149,-0.6039 0,-0.3285 -0.2419,-0.5376 -0.5704,-0.5376 -0.3628,0.0109 -0.6148,0.2637 -0.6148,0.6148 l 0,0.011 z m -6.2211,1.701 5.3105,-1.0206 0,-0.9106 -5.3105,1.0198 0,0.9114 z" /><path
                         id="path4723"
                         style="fill:#231f20;fill-opacity:1;fill-rule:nonzero;stroke:none"
                         d="m 437.6381,490.9397 c 0.4275,0 0.6694,0.3293 0.6694,0.8123 0,0.866 -0.845,1.5137 -1.6783,1.7329 -0.0117,-1.4263 0.1747,-2.5452 0.9979,-2.5452 l 0.011,0 z m -3.7414,-0.1974 c -0.2302,0.3948 -0.4276,1.0424 -0.4276,1.7556 0,1.4045 0.9652,2.0185 2.1387,2.0185 1.6027,0 3.4129,-1.1844 3.4129,-2.8963 0,-1.0097 -0.604,-1.5582 -1.3608,-1.5582 -1.3936,0 -1.7665,1.5691 -1.7338,3.533 -0.2301,0.0437 -0.724,0.011 -1.0088,-0.11 -0.4721,-0.2083 -0.7132,-0.6359 -0.7132,-1.1844 0,-0.6258 0.1974,-1.0979 0.373,-1.4263 l -0.6804,-0.1319 z" /></g></g></g></g></g></g></g></g></g></g></svg>